<svg width="756" height="397" viewBox="0 0 756 397" fill="none" xmlns="http://www.w3.org/2000/svg">
<g clip-path="url(#clip0_1206_22)">
<path d="M89.135 339.81H111.501L169.737 190H144.839L129.014 230.723H71.2L55.586 190H30.477L89.135 339.81ZM124.372 248.236L100.318 313.857L75.42 248.236H124.372ZM260.637 187.89C252.197 187.89 244.53 189.859 237.638 193.798C230.886 197.877 225.54 203.293 221.602 210.045V190H201.135V344.03H224.345V279.464C228.705 286.497 234.121 292.054 240.592 296.133C247.203 300.212 254.94 302.252 263.802 302.252C271.116 302.252 277.798 300.705 283.847 297.61C289.895 294.515 295.03 290.295 299.25 284.95C303.61 279.605 306.916 273.486 309.167 266.593C311.558 259.7 312.754 252.386 312.754 244.649C312.754 236.912 311.417 229.598 308.745 222.705C306.213 215.812 302.555 209.764 297.773 204.559C292.99 199.354 287.434 195.275 281.104 192.321C274.914 189.367 268.092 187.89 260.637 187.89ZM254.518 207.724C259.582 207.724 264.224 208.709 268.444 210.678C272.664 212.788 276.321 215.531 279.416 218.907C282.51 222.283 284.831 226.222 286.379 230.723C288.067 235.224 288.911 239.866 288.911 244.649C288.911 251.26 287.504 257.45 284.691 263.217C282.018 268.984 278.22 273.626 273.297 277.143C268.373 280.66 262.676 282.418 256.206 282.418C251.564 282.418 247.203 281.293 243.124 279.042C239.044 276.932 235.387 274.048 232.152 270.391C229.057 266.874 226.455 262.936 224.345 258.575V229.457C225.189 226.222 226.666 223.268 228.776 220.595C230.886 218.063 233.347 215.812 236.161 213.843C238.974 212.014 241.998 210.537 245.234 209.412C248.469 208.287 251.564 207.724 254.518 207.724ZM399.038 187.89C390.317 187.89 382.51 189.367 375.617 192.321C368.724 195.416 362.746 199.636 357.682 204.981C352.759 210.326 348.961 216.375 346.288 223.127C343.615 230.02 342.279 237.334 342.279 245.071C342.279 252.808 343.615 260.122 346.288 267.015C348.961 273.908 352.759 279.956 357.682 285.161C362.746 290.506 368.724 294.656 375.617 297.61C382.65 300.705 390.457 302.252 399.038 302.252C407.619 302.252 415.355 300.705 422.248 297.61C429.281 294.656 435.26 290.506 440.183 285.161C445.247 279.956 449.115 273.908 451.788 267.015C454.461 260.122 455.797 252.808 455.797 245.071C455.797 237.334 454.461 230.02 451.788 223.127C449.115 216.375 445.247 210.326 440.183 204.981C435.26 199.636 429.281 195.416 422.248 192.321C415.355 189.367 407.619 187.89 399.038 187.89ZM366.122 244.86C366.122 237.827 367.599 231.497 370.553 225.87C373.507 220.243 377.446 215.812 382.369 212.577C387.292 209.342 392.849 207.724 399.038 207.724C405.087 207.724 410.573 209.342 415.496 212.577C420.56 215.953 424.569 220.454 427.523 226.081C430.477 231.848 431.954 238.178 431.954 245.071C431.954 252.104 430.477 258.434 427.523 264.061C424.569 269.688 420.56 274.119 415.496 277.354C410.573 280.73 405.087 282.418 399.038 282.418C392.849 282.418 387.292 280.73 382.369 277.354C377.446 273.978 373.507 269.477 370.553 263.85C367.599 258.364 366.122 252.034 366.122 244.86ZM491.153 232.833V300.353H514.363V237.475C514.363 227.628 516.121 220.173 519.638 215.109C523.295 210.186 528.57 207.724 535.463 207.724C539.823 207.724 544.043 208.638 548.123 210.467C552.343 212.296 556.141 214.968 559.517 218.485C563.033 222.142 565.847 226.503 567.957 231.567V300.353H591.167V216.164C591.167 213.491 591.659 211.592 592.644 210.467C593.628 209.342 595.246 208.709 597.497 208.568V190C595.105 189.578 593.136 189.297 591.589 189.156C590.041 189.015 588.564 188.945 587.158 188.945C582.938 188.945 579.421 190.07 576.608 192.321C573.794 194.712 572.177 197.737 571.755 201.394L571.333 212.366C566.409 204.348 560.009 198.229 552.132 194.009C544.254 189.93 535.603 187.89 526.179 187.89C514.644 187.89 505.923 191.688 500.015 199.284C494.107 206.88 491.153 218.063 491.153 232.833ZM697.806 195.697C695.836 194.712 693.375 193.657 690.421 192.532C687.467 191.407 684.091 190.422 680.293 189.578C676.635 188.734 672.837 188.312 668.899 188.312C664.116 188.312 659.685 189.156 655.606 190.844C651.526 192.532 648.221 195.205 645.689 198.862C643.297 202.66 642.102 207.513 642.102 213.421V282.418H627.543V300.353H642.102V336.645H665.312V300.353H689.366V282.418H665.312V220.806C665.593 217.008 666.789 214.195 668.899 212.366C671.149 210.537 673.892 209.623 677.128 209.623C680.363 209.623 683.458 210.186 686.412 211.311C689.366 212.436 691.546 213.351 692.953 214.054L697.806 195.697Z" fill="url(#paint0_linear_1206_22)"/>
<path d="M89.135 40.19H111.501L169.737 190H144.839L129.014 149.277H71.2L55.586 190H30.477L89.135 40.19ZM124.372 131.764L100.318 66.143L75.42 131.764H124.372ZM260.637 192.11C252.197 192.11 244.53 190.141 237.638 186.202C230.886 182.123 225.54 176.707 221.602 169.955V190H201.135V35.97H224.345V100.536C228.705 93.5027 234.121 87.9463 240.592 83.867C247.203 79.7877 254.94 77.748 263.802 77.748C271.116 77.748 277.798 79.2953 283.847 82.39C289.895 85.4847 295.03 89.7047 299.25 95.05C303.61 100.395 306.916 106.514 309.167 113.407C311.558 120.3 312.754 127.614 312.754 135.351C312.754 143.088 311.417 150.402 308.745 157.295C306.213 164.188 302.555 170.236 297.773 175.441C292.99 180.646 287.434 184.725 281.104 187.679C274.914 190.633 268.092 192.11 260.637 192.11ZM254.518 172.276C259.582 172.276 264.224 171.291 268.444 169.322C272.664 167.212 276.321 164.469 279.416 161.093C282.51 157.717 284.831 153.778 286.379 149.277C288.067 144.776 288.911 140.134 288.911 135.351C288.911 128.74 287.504 122.55 284.691 116.783C282.018 111.016 278.22 106.374 273.297 102.857C268.373 99.3403 262.676 97.582 256.206 97.582C251.564 97.582 247.203 98.7073 243.124 100.958C239.044 103.068 235.387 105.952 232.152 109.609C229.057 113.126 226.455 117.064 224.345 121.425V150.543C225.189 153.778 226.666 156.732 228.776 159.405C230.886 161.937 233.347 164.188 236.161 166.157C238.974 167.986 241.998 169.463 245.234 170.588C248.469 171.713 251.564 172.276 254.518 172.276ZM399.038 192.11C390.317 192.11 382.51 190.633 375.617 187.679C368.724 184.584 362.746 180.364 357.682 175.019C352.759 169.674 348.961 163.625 346.288 156.873C343.615 149.98 342.279 142.666 342.279 134.929C342.279 127.192 343.615 119.878 346.288 112.985C348.961 106.092 352.759 100.044 357.682 94.839C362.746 89.4937 368.724 85.344 375.617 82.39C382.65 79.2953 390.457 77.748 399.038 77.748C407.619 77.748 415.355 79.2953 422.248 82.39C429.281 85.344 435.26 89.4937 440.183 94.839C445.247 100.044 449.115 106.092 451.788 112.985C454.461 119.878 455.797 127.192 455.797 134.929C455.797 142.666 454.461 149.98 451.788 156.873C449.115 163.625 445.247 169.674 440.183 175.019C435.26 180.364 429.281 184.584 422.248 187.679C415.355 190.633 407.619 192.11 399.038 192.11ZM366.122 135.14C366.122 142.173 367.599 148.503 370.553 154.13C373.507 159.757 377.446 164.188 382.369 167.423C387.292 170.658 392.849 172.276 399.038 172.276C405.087 172.276 410.573 170.658 415.496 167.423C420.56 164.047 424.569 159.546 427.523 153.919C430.477 148.152 431.954 141.822 431.954 134.929C431.954 127.896 430.477 121.566 427.523 115.939C424.569 110.312 420.56 105.881 415.496 102.646C410.573 99.27 405.087 97.582 399.038 97.582C392.849 97.582 387.292 99.27 382.369 102.646C377.446 106.022 373.507 110.523 370.553 116.15C367.599 121.636 366.122 127.966 366.122 135.14ZM491.153 147.167V79.647H514.363V142.525C514.363 152.372 516.121 159.827 519.638 164.891C523.295 169.814 528.57 172.276 535.463 172.276C539.823 172.276 544.043 171.362 548.123 169.533C552.343 167.704 556.141 165.032 559.517 161.515C563.033 157.858 565.847 153.497 567.957 148.433V79.647H591.167V163.836C591.167 166.509 591.659 168.408 592.644 169.533C593.628 170.658 595.246 171.291 597.497 171.432V190C595.105 190.422 593.136 190.703 591.589 190.844C590.041 190.985 588.564 191.055 587.158 191.055C582.938 191.055 579.421 189.93 576.608 187.679C573.794 185.288 572.177 182.263 571.755 178.606L571.333 167.634C566.409 175.652 560.009 181.771 552.132 185.991C544.254 190.07 535.603 192.11 526.179 192.11C514.644 192.11 505.923 188.312 500.015 180.716C494.107 173.12 491.153 161.937 491.153 147.167ZM697.806 184.303C695.836 185.288 693.375 186.343 690.421 187.468C687.467 188.593 684.091 189.578 680.293 190.422C676.635 191.266 672.837 191.688 668.899 191.688C664.116 191.688 659.685 190.844 655.606 189.156C651.526 187.468 648.221 184.795 645.689 181.138C643.297 177.34 642.102 172.487 642.102 166.579V97.582H627.543V79.647H642.102V43.355H665.312V79.647H689.366V97.582H665.312V159.194C665.593 162.992 666.789 165.805 668.899 167.634C671.149 169.463 673.892 170.377 677.128 170.377C680.363 170.377 683.458 169.814 686.412 168.689C689.366 167.564 691.546 166.649 692.953 165.946L697.806 184.303Z" fill="white"/>
</g>
<defs>
<linearGradient id="paint0_linear_1206_22" x1="388.5" y1="413" x2="388.5" y2="115" gradientUnits="userSpaceOnUse">
<stop offset="0.145833" stop-color="white" stop-opacity="0"/>
<stop offset="0.520833" stop-color="white" stop-opacity="0.35"/>
<stop offset="1" stop-color="white"/>
</linearGradient>
<clipPath id="clip0_1206_22">
<rect width="756" height="397" fill="white"/>
</clipPath>
</defs>
</svg>
