<svg width="224" height="26" viewBox="0 0 224 26" fill="none" xmlns="http://www.w3.org/2000/svg">
<path d="M14.976 15.346C13.78 16.542 11.986 17.192 10.4 17.192C5.902 17.192 4.16 14.046 4.134 11.03C4.108 7.988 6.006 4.712 10.4 4.712C11.986 4.712 13.598 5.258 14.794 6.428L17.082 4.218C15.21 2.372 12.87 1.436 10.4 1.436C3.822 1.436 0.728 6.272 0.754 11.03C0.78 15.762 3.64 20.416 10.4 20.416C13.026 20.416 15.444 19.558 17.316 17.712L14.976 15.346ZM51.6334 1.8C49.3974 1.8 46.7194 1.8 44.4834 1.8V20C46.7194 20 49.3974 20 51.6334 20C58.0034 20 60.8114 15.346 60.7334 10.744C60.6554 6.246 57.8734 1.8 51.6334 1.8ZM47.8894 5.05H51.6334C55.5854 5.05 57.2494 7.884 57.3274 10.718C57.4054 13.682 55.7674 16.698 51.6334 16.698H47.8894V5.05ZM66.7099 20V1.8H63.3039V20H66.7099ZM81.8903 13.084L72.9723 1.8H70.1903V20H73.6223V7.728L83.1903 20.026V20H85.3223V1.774H81.8903V13.084ZM104.117 4.062C102.245 2.216 99.8014 1.28 97.3574 1.28C90.9354 1.28 87.7374 6.012 87.7374 11.134C87.7374 15.918 90.5194 20.416 97.3574 20.416C100.555 20.416 102.817 19.194 104.611 17.14V9.47H96.8114V12.538H101.465V15.762C100.035 16.906 98.7874 17.218 97.3574 17.218C92.8334 17.218 91.0914 14.124 91.0914 11.134C91.0914 7.39 93.4574 4.426 97.3574 4.426C98.9434 4.426 100.763 5.076 101.985 6.246L104.117 4.062Z" fill="white"/>
<path d="M129.55 20H130.928V1.8H129.212L122.322 12.408L115.354 1.8C114.678 1.8 114.366 1.8 113.69 1.8V20H115.094V3.828L122.114 14.488H122.582L129.55 3.828V20ZM136.345 20V1.8H134.967V20H136.345ZM140.376 1.8V20H141.78V4.972L154.052 20H154.598V1.8H153.22V16.854L140.974 1.8H140.376ZM171.214 1.8V13.11C171.214 20.91 160.034 20.936 160.034 13.11V1.8H158.656V13.11C158.656 22.652 172.592 22.626 172.592 13.11V1.8H171.214ZM181.578 20H182.982V3.074H189.56V1.826H175V3.074H181.578V20ZM193.601 3.126H204.781V1.8H192.223V20H205.093V18.648H193.601V11.472H204.261V10.198H193.601V3.126ZM221.7 4.634C219.906 1.956 217.644 1.54 215.044 1.54C212.054 1.54 208.05 2.736 208.128 6.584C208.128 9.938 211.534 10.614 214.862 11.264C217.852 11.836 220.868 12.434 220.842 15.164C220.842 18.388 217.28 19.012 215.044 19.012C212.808 19.012 209.948 17.92 208.83 15.71L207.582 16.334C208.986 19.116 212.21 20.286 215.044 20.286C218.086 20.286 222.22 19.298 222.246 15.19C222.246 11.264 218.606 10.64 215.096 9.964C212.028 9.392 209.532 8.846 209.532 6.532C209.532 3.62 212.912 2.84 215.044 2.84C217.098 2.866 219.23 3.178 220.556 5.31L221.7 4.634Z" fill="white"/>
<circle cx="29.5" cy="10.5" r="9.5" fill="#80BA4F"/>
<path d="M34 8L27.8125 13.7273L25 11.124" stroke="white" stroke-linecap="round" stroke-linejoin="round"/>
</svg>
