<svg width="474" height="502" viewBox="0 0 474 502" fill="none" xmlns="http://www.w3.org/2000/svg">
<g clip-path="url(#clip0_1046_227)">
<path d="M388.385 391.345C280.95 485.101 208.802 482.486 93.4376 367.122C-21.9267 251.758 -23.6865 234.04 68.0749 106.371C171.52 2.92614 196.378 1.43619 323.126 67.3302C435.976 192.719 495.408 284.322 388.385 391.345Z" fill="url(#paint0_radial_1046_227)"/>
<path d="M199.284 477.26C110.709 440.171 227.84 462.588 79.8904 297.52C-68.059 132.452 105.369 25.2603 237.726 25.2603C370.083 25.2603 289.358 55.0133 412.037 207.854C534.717 360.694 331.641 477.26 199.284 477.26Z" fill="url(#paint1_radial_1046_227)"/>
<path d="M462.052 210.965C456.657 306.84 438.688 188.945 332.475 383.509C226.262 578.073 67.3269 450.374 23.1452 325.609C-21.0364 200.843 33.9567 267.007 137.079 100.345C240.201 -66.3176 417.87 86.2001 462.052 210.965Z" fill="url(#paint2_radial_1046_227)"/>
</g>
<defs>
<radialGradient id="paint0_radial_1046_227" cx="0" cy="0" r="1" gradientUnits="userSpaceOnUse" gradientTransform="translate(234.072 243.016) rotate(134.922) scale(298.028 340.696)">
<stop offset="0.510417" stop-color="#37134D"/>
<stop offset="0.78125" stop-color="#D9D9D9" stop-opacity="0"/>
</radialGradient>
<radialGradient id="paint1_radial_1046_227" cx="0" cy="0" r="1" gradientUnits="userSpaceOnUse" gradientTransform="translate(236.567 251.26) rotate(180) scale(213.367 226)">
<stop offset="0.6875" stop-color="#36114D"/>
<stop offset="1" stop-color="#D9D9D9" stop-opacity="0"/>
</radialGradient>
<radialGradient id="paint2_radial_1046_227" cx="0" cy="0" r="1" gradientUnits="userSpaceOnUse" gradientTransform="translate(236.569 251.26) rotate(70.5) scale(213.367 226)">
<stop offset="0.6875" stop-color="#36114D"/>
<stop offset="1" stop-color="#D9D9D9" stop-opacity="0"/>
</radialGradient>
<clipPath id="clip0_1046_227">
<rect width="474" height="502" fill="white"/>
</clipPath>
</defs>
</svg>
