<svg width="296" height="431" viewBox="0 0 296 431" fill="none" xmlns="http://www.w3.org/2000/svg">
<path d="M79.336 216.945C67.3793 216.945 57.2513 218.985 48.952 223.064C40.7933 227.143 34.182 232.7 29.118 239.733C24.1947 246.766 20.5373 254.784 18.146 263.787C15.8953 272.79 14.77 282.144 14.77 291.85V367.81H38.402V291.85C38.402 284.957 39.1053 278.276 40.512 271.805C41.9187 265.475 44.1693 259.778 47.264 254.714C50.3587 249.65 54.5083 245.641 59.713 242.687C65.0583 239.733 71.5993 238.256 79.336 238.256C87.2133 238.256 93.7543 239.733 98.959 242.687C104.304 245.782 108.454 249.861 111.408 254.925C114.503 260.13 116.753 265.897 118.16 272.227C119.567 278.557 120.27 285.098 120.27 291.85V367.81H144.113V291.85C144.113 281.581 142.847 271.875 140.315 262.732C137.924 253.729 134.126 245.782 128.921 238.889C123.857 232.137 117.246 226.792 109.087 222.853C100.928 218.914 91.0113 216.945 79.336 216.945ZM224.98 215.89C215.696 215.89 206.905 217.367 198.605 220.321C190.306 223.416 183.202 227.987 177.294 234.036L185.945 249.65C192.275 244.023 198.605 239.944 204.935 237.412C211.406 234.88 217.806 233.614 224.136 233.614C230.607 233.614 235.882 234.81 239.961 237.201C244.041 239.733 246.08 243.39 246.08 248.173C246.08 251.69 245.025 254.292 242.915 255.98C240.805 257.668 237.711 259.145 233.631 260.411C229.693 261.677 224.91 263.084 219.283 264.631C211.406 267.022 204.795 269.484 199.449 272.016C194.104 274.689 190.095 277.924 187.422 281.722C184.75 285.52 183.413 290.373 183.413 296.281C183.413 303.455 185.242 309.574 188.899 314.638C192.557 319.702 197.621 323.57 204.091 326.243C210.703 328.916 218.299 330.252 226.879 330.252C234.897 330.252 242.282 328.986 249.034 326.454C255.927 324.063 261.976 320.265 267.18 315.06L257.263 299.657C252.34 304.158 247.276 307.464 242.071 309.574C237.007 311.684 231.521 312.739 225.613 312.739C222.237 312.739 219.002 312.317 215.907 311.473C212.813 310.77 210.21 309.363 208.1 307.253C206.131 305.284 205.146 302.47 205.146 298.813C205.146 295.859 205.99 293.468 207.678 291.639C209.366 289.81 211.898 288.263 215.274 286.997C218.65 285.731 222.8 284.324 227.723 282.777C236.304 280.245 243.619 277.713 249.667 275.181C255.716 272.79 260.358 269.625 263.593 265.686C266.969 261.888 268.657 256.613 268.657 249.861C268.657 239.17 264.648 230.801 256.63 224.752C248.753 218.844 238.203 215.89 224.98 215.89Z" fill="url(#paint0_linear_1206_24)"/>
<path d="M79.336 219.055C67.3793 219.055 57.2513 217.015 48.952 212.936C40.7933 208.857 34.182 203.3 29.118 196.267C24.1947 189.234 20.5373 181.216 18.146 172.213C15.8953 163.21 14.77 153.856 14.77 144.15V68.19H38.402V144.15C38.402 151.043 39.1053 157.724 40.512 164.195C41.9187 170.525 44.1693 176.222 47.264 181.286C50.3587 186.35 54.5083 190.359 59.713 193.313C65.0583 196.267 71.5993 197.744 79.336 197.744C87.2133 197.744 93.7543 196.267 98.959 193.313C104.304 190.218 108.454 186.139 111.408 181.075C114.503 175.87 116.753 170.103 118.16 163.773C119.567 157.443 120.27 150.902 120.27 144.15V68.19H144.113V144.15C144.113 154.419 142.847 164.125 140.315 173.268C137.924 182.271 134.126 190.218 128.921 197.111C123.857 203.863 117.246 209.208 109.087 213.147C100.928 217.086 91.0113 219.055 79.336 219.055ZM224.98 220.11C215.696 220.11 206.905 218.633 198.605 215.679C190.306 212.584 183.202 208.013 177.294 201.964L185.945 186.35C192.275 191.977 198.605 196.056 204.935 198.588C211.406 201.12 217.806 202.386 224.136 202.386C230.607 202.386 235.882 201.19 239.961 198.799C244.041 196.267 246.08 192.61 246.08 187.827C246.08 184.31 245.025 181.708 242.915 180.02C240.805 178.332 237.711 176.855 233.631 175.589C229.693 174.323 224.91 172.916 219.283 171.369C211.406 168.978 204.795 166.516 199.449 163.984C194.104 161.311 190.095 158.076 187.422 154.278C184.75 150.48 183.413 145.627 183.413 139.719C183.413 132.545 185.242 126.426 188.899 121.362C192.557 116.298 197.621 112.43 204.091 109.757C210.703 107.084 218.299 105.748 226.879 105.748C234.897 105.748 242.282 107.014 249.034 109.546C255.927 111.937 261.976 115.735 267.18 120.94L257.263 136.343C252.34 131.842 247.276 128.536 242.071 126.426C237.007 124.316 231.521 123.261 225.613 123.261C222.237 123.261 219.002 123.683 215.907 124.527C212.813 125.23 210.21 126.637 208.1 128.747C206.131 130.716 205.146 133.53 205.146 137.187C205.146 140.141 205.99 142.532 207.678 144.361C209.366 146.19 211.898 147.737 215.274 149.003C218.65 150.269 222.8 151.676 227.723 153.223C236.304 155.755 243.619 158.287 249.667 160.819C255.716 163.21 260.358 166.375 263.593 170.314C266.969 174.112 268.657 179.387 268.657 186.139C268.657 196.83 264.648 205.199 256.63 211.248C248.753 217.156 238.203 220.11 224.98 220.11Z" fill="white"/>
<defs>
<linearGradient id="paint0_linear_1206_24" x1="148" y1="420" x2="148" y2="165" gradientUnits="userSpaceOnUse">
<stop stop-color="white" stop-opacity="0"/>
<stop offset="0.489583" stop-color="white" stop-opacity="0.33"/>
<stop offset="1" stop-color="white"/>
</linearGradient>
</defs>
</svg>
